<svg width="55" height="48" viewBox="0 0 55 48" fill="none" xmlns="http://www.w3.org/2000/svg">
<path d="M49.945 9.88058H41.9777C41.6678 9.88058 41.4465 9.62723 41.4465 9.37389C41.4465 7.93826 42.6859 6.75598 44.1908 6.75598H47.7318C49.2368 6.75598 50.4761 7.93826 50.4761 9.37389C50.4761 9.62723 50.2548 9.88058 49.945 9.88058ZM42.6416 8.78275H49.3253C49.104 8.14938 48.4843 7.72714 47.7761 7.72714H44.2351C43.4826 7.76936 42.8629 8.19161 42.6416 8.78275Z" fill="#010002"/>
<path d="M13.2069 9.88058H5.23965C4.92981 9.88058 4.7085 9.62723 4.7085 9.37389C4.7085 7.93826 5.94785 6.75598 7.45278 6.75598H10.9938C12.4987 6.75598 13.7381 7.93826 13.7381 9.37389C13.7381 9.62723 13.5168 9.88058 13.2069 9.88058ZM5.90359 8.78275H12.5873C12.3659 8.14938 11.7463 7.72714 11.0381 7.72714H7.49705C6.74458 7.76936 6.1249 8.19161 5.90359 8.78275Z" fill="#010002"/>
<path opacity="0.2" d="M49.5024 9.33154V38.8885C49.5024 41.2109 47.5106 43.111 45.0762 43.111H0.813477C0.813477 45.4333 2.8053 47.3334 5.23975 47.3334H49.5024C51.9369 47.3334 53.9287 45.4333 53.9287 43.111V13.554C53.9287 11.2316 51.9369 9.33154 49.5024 9.33154Z" fill="#010002"/>
<path d="M49.5026 47.8823H5.23989C2.84971 47.8823 0.282471 46.1933 0.282471 41.4642V11.9072C0.282471 10.8938 2.58413 8.86707 5.23989 8.86707H49.5026C52.2469 8.86707 54.46 10.9783 54.46 13.5962V43.1532C54.46 45.7289 52.2469 47.8823 49.5026 47.8823ZM5.23989 9.88045C3.11528 9.88045 1.4333 11.485 1.34478 11.9072V41.422C1.34478 44.7999 2.80544 46.8267 5.23989 46.8267H49.5026C51.6272 46.8267 53.3977 45.1799 53.3977 43.111V13.554C53.3977 11.5272 51.6715 9.83822 49.5026 9.83822H5.23989V9.88045Z" fill="#010002"/>
<path d="M27.3709 40.7042C20.3332 40.7042 14.6233 35.2573 14.6233 28.5437C14.6233 21.83 20.3332 16.3831 27.3709 16.3831C34.4087 16.3831 40.1186 21.83 40.1186 28.5437C40.1186 35.2573 34.4087 40.7042 27.3709 40.7042ZM27.3709 17.4809C20.9529 17.4809 15.7741 22.4634 15.7741 28.5437C15.7741 34.6239 20.9971 39.6064 27.3709 39.6064C33.7448 39.6064 38.9678 34.6662 38.9678 28.5437C38.9678 22.4211 33.789 17.4809 27.3709 17.4809Z" fill="white"/>
<path d="M35.8695 25.7145H30.6908C30.5137 25.7145 30.3367 25.5456 30.3367 25.3767V20.4364C30.3367 20.2675 30.1596 20.0986 29.9826 20.0986H24.7596C24.5825 20.0986 24.4055 20.2675 24.4055 20.4364V25.3767C24.4055 25.5456 24.2284 25.7145 24.0514 25.7145H18.8727C18.6956 25.7145 18.5186 25.8834 18.5186 26.0523V30.9925C18.5186 31.1614 18.6956 31.3303 18.8727 31.3303H24.0514C24.2284 31.3303 24.4055 31.4992 24.4055 31.6681V36.6083C24.4055 36.7772 24.5825 36.9461 24.7596 36.9461H29.9383C30.1154 36.9461 30.2924 36.7772 30.2924 36.6083V31.7103C30.2924 31.5414 30.4695 31.3725 30.6465 31.3725H35.8253C36.0023 31.3725 36.1794 31.2036 36.1794 31.0347V26.0523C36.2236 25.8834 36.0466 25.7145 35.8695 25.7145Z" fill="white"/>
<path opacity="0.2" d="M19.6252 6.79797H16.5269V9.33143H19.6252V6.79797Z" fill="#010002"/>
<path opacity="0.2" d="M38.2153 6.79797H35.1169V9.33143H38.2153V6.79797Z" fill="#010002"/>
<path d="M38.2153 9.88048H35.1169C34.8071 9.88048 34.5858 9.62714 34.5858 9.37379V6.84033C34.5858 5.48916 33.9219 5.23581 31.8415 5.23581H31.3104C31.1333 5.23581 30.912 5.23581 30.7349 5.23581H24.0955C23.8742 5.23581 23.6972 5.23581 23.5201 5.23581H22.989C20.9086 5.23581 20.2447 5.44693 20.2447 6.84033V9.37379C20.2447 9.66936 19.9791 9.88048 19.7135 9.88048H16.6151C16.3053 9.88048 16.084 9.62714 16.084 9.37379V6.84033C16.084 2.15344 18.6512 0 24.1398 0H30.7792C36.312 0 38.835 2.19566 38.835 6.84033V9.37379C38.7907 9.62714 38.5252 9.88048 38.2153 9.88048ZM35.6924 8.78265H37.6842V6.75589C37.6842 2.70235 35.6038 0.928934 30.6907 0.928934H24.0513C19.1824 0.928934 17.0578 2.66013 17.0578 6.75589V8.78265H19.0496V6.75589C19.0496 4.09576 21.3512 4.09576 22.9004 4.09576H23.4316C23.6086 4.09576 23.83 4.09576 24.007 4.09576H30.6464C30.8235 4.09576 31.0448 4.09576 31.2218 4.09576H31.753C33.3022 4.09576 35.6038 4.09576 35.6038 6.75589V8.78265H35.6924Z" fill="#010002"/>
<path d="M53.9289 14.1029H0.813623C0.503784 14.1029 0.282471 13.8495 0.282471 13.5962C0.282471 13.3428 0.548047 13.0895 0.813623 13.0895H53.9289C54.2387 13.0895 54.46 13.3428 54.46 13.5962C54.46 13.8495 54.2387 14.1029 53.9289 14.1029Z" fill="#010002"/>
<path d="M53.9289 43.6599H0.813623C0.503784 43.6599 0.282471 43.4065 0.282471 43.1532C0.282471 42.8998 0.548047 42.6465 0.813623 42.6465H53.9289C54.2387 42.6465 54.46 42.8998 54.46 43.1532C54.46 43.4065 54.2387 43.6599 53.9289 43.6599Z" fill="#010002"/>
</svg>
