<svg width="37" height="30" viewBox="0 0 37 30" fill="none" xmlns="http://www.w3.org/2000/svg">
<path d="M37 16.9434L30.3602 8.78747H24.2074V5.56112H16.8671C15.4559 2.27933 12.3922 0 8.84798 0C3.96934 0 0 4.31836 0 9.62605C0 13.311 1.91358 16.5184 4.71607 18.1356V25.7357H8.08156C8.17171 28.1036 9.96984 30 12.1681 30C14.3663 30 16.1645 28.1036 16.2546 25.7357H25.4614C25.5515 28.1036 27.3497 30 29.548 30C31.7462 30 33.5444 28.1036 33.6345 25.7357H37V16.9434ZM1.54169 9.62605C1.54169 5.24296 4.81921 1.67717 8.84806 1.67717C12.8768 1.67717 16.1544 5.24296 16.1544 9.62605C16.1544 14.0091 12.8768 17.5749 8.84806 17.5749C4.81914 17.5749 1.54169 14.0091 1.54169 9.62605ZM12.1681 28.3228C10.7623 28.3228 9.61887 27.0788 9.61887 25.5495C9.61887 24.0201 10.7623 22.7761 12.1681 22.7761C13.5739 22.7761 14.7173 24.0201 14.7173 25.5495C14.7173 27.0788 13.5739 28.3228 12.1681 28.3228ZM22.6657 24.0585H16.0221C15.4572 22.3357 13.9432 21.0989 12.1681 21.0989C10.393 21.0989 8.87894 22.3358 8.31413 24.0585H6.25768V18.8308C7.07734 19.1044 7.94707 19.2521 8.84798 19.2521C13.7267 19.2521 17.696 14.9337 17.696 9.62614C17.696 8.80226 17.6001 8.0022 17.4204 7.23846H22.6657V24.0585H22.6657ZM29.548 28.3228C28.1421 28.3228 26.9987 27.0788 26.9987 25.5495C26.9987 24.0201 28.1421 22.7761 29.548 22.7761C30.9537 22.7761 32.0972 24.0201 32.0972 25.5495C32.0972 27.0788 30.9537 28.3228 29.548 28.3228ZM35.4583 24.0585H33.4019C32.8371 22.3357 31.323 21.0989 29.548 21.0989C27.7729 21.0989 26.2587 22.3358 25.6939 24.0585H24.2074V10.4647H29.6661L35.4583 17.5798V24.0585Z" fill="black"/>
<path d="M12.3058 10.8468L9.61884 9.14413V3.54456H8.07715V10.1081L11.5297 12.2963L12.3058 10.8468Z" fill="black"/>
</svg>
