<svg width="41" height="40" viewBox="0 0 41 40" fill="none" xmlns="http://www.w3.org/2000/svg">
<path d="M8.11836 18.2714L7.11257 17.3323L5.97559 18.5514L8.2502 20.6737L12.862 15.3141L11.5989 14.2268L8.11836 18.2714Z" fill="black"/>
<path d="M8.11836 26.4755L7.11257 25.5363L5.97559 26.7554L8.2502 28.8778L12.862 23.5181L11.5989 22.4309L8.11836 26.4755Z" fill="black"/>
<path d="M8.11869 34.6802L7.11281 33.741L5.9751 34.9586L8.24971 37.0826L12.862 31.7228L11.5989 30.6356L8.11869 34.6802Z" fill="black"/>
<path d="M36.8561 6.38914L36.0965 5.86343C35.3642 5.27225 32.8106 4.46637 31.1608 6.76188L26.9509 12.8445V7.99388H22.1448C21.5034 6.71012 20.3267 5.71412 19.3874 5.07322C19.1058 2.19486 16.9916 0 14.4151 0C11.8383 0 9.72389 2.19486 9.44274 5.07322C8.50323 5.71412 7.32625 6.71012 6.68495 7.99388H1.87891V40H26.9509V26.9353L37.7546 11.3256C38.867 9.71673 38.4642 7.50326 36.8561 6.38914ZM30.7754 10.2475L34.628 12.9143L22.7611 30.061L18.8952 31.5299L18.9081 27.3933L30.7754 10.2475ZM10.6925 6.24669L11.0664 6.00988L11.0802 5.56792C11.1485 3.38041 12.6134 1.66653 14.4152 1.66653C16.2165 1.66653 17.6814 3.38041 17.7502 5.56792L17.7641 6.00988L18.1375 6.24588C18.942 6.75445 20.6917 8.02563 20.9227 9.57592C19.956 9.86073 17.8035 10.3856 15.0792 10.3856C14.8697 10.3856 14.6565 10.3831 14.39 10.3758C11.3736 10.4784 8.95336 9.88098 7.90764 9.5742C8.13866 8.0249 9.88838 6.75453 10.6925 6.24669ZM25.2843 38.3333H3.5456V9.66057H6.2238C6.21205 9.85282 6.27589 10.7731 6.27589 10.7731C6.27589 10.7731 9.06903 12.0524 14.4152 12.0524C19.9731 12.0524 22.5543 10.7731 22.5543 10.7731C22.5543 10.7731 22.6181 9.8529 22.6063 9.66057H25.2843V15.2525L17.2432 26.8709L17.2211 33.9484L23.8369 31.4346L25.2843 29.3434V38.3333ZM36.3841 10.3767L35.5765 11.5437L31.7241 8.87698L32.5312 7.71078C33.0996 6.8889 34.3208 6.66016 35.1484 7.23388L35.9077 7.75959C36.7601 8.34955 36.9741 9.52392 36.3841 10.3767Z" fill="black"/>
</svg>
