<svg width="64" height="60" viewBox="0 0 64 60" fill="none" xmlns="http://www.w3.org/2000/svg">
<path d="M35.796 59.9494C32.9223 59.9494 30.5105 59.2641 30.4079 59.2151L12.2421 53.7324C11.9855 53.6345 11.7803 53.4387 11.7803 53.145V38.2635C11.7803 37.9208 12.0882 37.676 12.3961 37.676H20.0934C20.5039 37.676 29.7408 37.725 33.5894 42.5713H42.4157C44.571 42.5713 46.4183 44.1377 46.5723 46.0958C46.6236 46.4875 46.5723 46.8301 46.521 47.2218L57.9644 43.4524C58.6828 43.2566 59.2986 43.1587 59.863 43.1587C61.2999 43.1587 62.2749 43.7951 62.8394 45.0678C63.6091 46.8301 62.2749 48.3477 61.2486 48.8861C57.1433 50.9911 43.596 57.8934 40.2091 59.2151C39.0289 59.6557 37.5407 59.9494 35.796 59.9494ZM13.1145 52.7044L30.8184 58.0402C30.8184 58.0402 33.1789 58.7256 35.8473 58.7256C37.3868 58.7256 38.721 58.5298 39.7986 58.0892C43.1341 56.7675 56.6302 49.8652 60.7354 47.8092C61.2486 47.5155 62.2236 46.6343 61.7617 45.5574C61.4025 44.7252 60.8894 44.3825 59.9657 44.3825C59.5551 44.3825 59.042 44.4804 58.4775 44.6273L45.7512 48.8372C45.6486 48.8861 45.546 48.8861 45.392 48.8372C45.1868 48.7882 44.9815 48.6414 44.9302 48.4945C44.8789 48.3477 44.8789 48.1029 44.9815 47.9071C45.3407 47.4176 45.4947 46.8301 45.4433 46.2427C45.3407 44.872 44.0578 43.844 42.5697 43.844H33.3328C33.1276 43.844 32.9223 43.7461 32.8197 43.5993C29.5355 38.9977 20.2987 38.9488 20.196 38.9488H13.1145V52.7044Z" fill="black"/>
<g opacity="0.1">
<path d="M42.6722 47.2709H31.8446C30.4078 47.2709 29.2788 48.3478 29.2788 49.7185H42.6209C44.5196 49.7185 46.0077 48.2499 46.0077 46.4876C46.0077 46.2429 45.9564 44.9701 45.9051 44.7253C45.6485 46.145 44.263 47.2709 42.6722 47.2709Z" fill="#060808"/>
</g>
<path d="M42.672 50.3058H29.3299C28.9707 50.3058 28.7141 50.0121 28.7141 49.7183C28.7141 49.4246 29.022 49.1309 29.3299 49.1309H42.672C44.2114 49.1309 45.443 47.9561 45.443 46.4875C45.443 46.2917 45.443 46.1448 45.3917 45.949C45.3404 45.6063 45.5456 45.3126 45.9049 45.2147C46.2641 45.1658 46.572 45.3616 46.6746 45.7042C46.7259 45.998 46.7772 46.2427 46.7772 46.5364C46.6746 48.5924 44.8785 50.3058 42.672 50.3058Z" fill="black"/>
<g opacity="0.1">
<path d="M15.5262 53.6836V38.2635H12.4473V53.1451L15.5262 54.0752C15.5262 53.9283 15.5262 53.8304 15.5262 53.6836Z" fill="#060808"/>
</g>
<path d="M12.4474 53.6836V37.8719C12.4474 36.795 11.575 35.9628 10.4461 35.9628H1.41452C1.20926 35.9628 1.05531 36.0117 0.901367 36.0607C0.901367 36.1586 0.901367 36.2565 0.901367 36.3054C0.901367 43.4035 3.05662 50.0121 6.75135 55.5927H10.4461C11.575 55.5927 12.4474 54.7116 12.4474 53.6836Z" fill="white"/>
<path d="M10.4459 56.2779H6.75122C6.49464 56.2779 6.28938 56.18 6.13543 55.9842C2.28676 50.061 0.234131 43.2566 0.234131 36.3053C0.234131 36.2564 0.234131 36.2074 0.234131 36.1585V36.0606C0.234131 35.8158 0.388078 35.62 0.59334 35.4732C0.849919 35.3263 1.1065 35.2773 1.41439 35.2773H10.4459C11.9341 35.2773 13.1657 36.4522 13.1657 37.8718V53.6835C13.1657 55.1031 11.9341 56.2779 10.4459 56.2779ZM7.16175 54.9073H10.4973C11.2157 54.9073 11.7802 54.3688 11.7802 53.6835V37.8718C11.7802 37.1865 11.2157 36.648 10.4973 36.648H1.61965C1.67097 43.1097 3.56965 49.4246 7.16175 54.9073Z" fill="black"/>
<path d="M37.4892 31.5082C37.13 31.5082 36.8734 31.2634 36.8734 30.9697L34.9747 17.0182L32.7168 24.459C32.6142 24.7038 32.4089 24.8996 32.1011 24.8996C31.8445 24.8996 31.5879 24.7038 31.4853 24.459L29.2787 17.4588L27.6879 20.4939C27.5853 20.6897 27.38 20.8365 27.1234 20.8365H18.3485C17.9892 20.8365 17.7327 20.5428 17.7327 20.2491C17.7327 19.9554 18.0406 19.6617 18.3485 19.6617H26.7129L28.8682 15.5986C28.9708 15.3538 29.2274 15.2559 29.484 15.2559C29.7405 15.2559 29.9458 15.4518 30.0484 15.6965L32.1011 22.1582L34.5642 13.8853C34.6668 13.5916 34.9234 13.4447 35.2313 13.4447C35.5392 13.4447 35.7958 13.6895 35.7958 13.9832L37.6945 27.4941L40.3629 16.7735C40.4142 16.4798 40.7221 16.2839 40.9787 16.2839C41.2866 16.2839 41.5431 16.4798 41.5945 16.7735L42.7747 22.0114L43.8523 19.9064C43.955 19.7106 44.1602 19.5638 44.4168 19.5638H60.2733C60.6326 19.5638 60.8891 19.8575 60.8891 20.1512C60.8891 20.4449 60.5812 20.7386 60.2733 20.7386H44.8273L43.0826 24.0674C42.98 24.3121 42.6721 24.41 42.4155 24.41C42.1589 24.3611 41.9023 24.1653 41.851 23.9205L40.9273 19.7106L38.105 31.0186C38.0537 31.3123 37.7971 31.5082 37.4892 31.5082Z" fill="white"/>
<path d="M39.0288 38.3125C38.1565 38.3125 37.2328 38.0677 36.463 37.6272C24.096 30.4311 17.3736 23.0883 15.9368 15.158C15.6802 13.8852 15.5776 12.5146 15.7315 11.1928C16.3986 5.22065 21.6841 0.423306 27.996 0.0316869C32.4091 -0.262028 36.5144 1.50026 39.2341 4.73112C39.3367 4.87798 39.4393 4.87798 39.542 4.73112C42.2617 1.50026 46.367 -0.262028 50.7288 0.0316869C56.9893 0.423306 62.1209 4.97588 62.9932 10.8502C63.2498 12.5635 63.1472 14.2768 62.6853 15.8923C60.8893 23.2351 53.7564 30.578 41.492 37.6761C40.7222 38.0677 39.9012 38.3125 39.0288 38.3125ZM28.9196 1.20655C28.6631 1.20655 28.3552 1.20655 28.0986 1.2555C22.4025 1.54921 17.6815 5.90598 17.0144 11.2907C16.8605 12.5146 16.9118 13.7384 17.1683 14.9132C18.5026 22.403 25.2249 29.6969 37.0788 36.5992C37.6433 36.9418 38.3104 37.0887 38.9775 37.0887C39.5933 37.0887 40.2604 36.9418 40.7736 36.5992C52.7814 29.6969 59.7604 22.5988 61.4538 15.5986C61.8643 14.081 61.9669 12.5635 61.7617 10.997C60.9919 5.66122 56.3222 1.54921 50.6775 1.20655C46.7262 0.961783 43.0314 2.52826 40.5683 5.46541C40.2604 5.80807 39.8499 6.00388 39.388 6.00388C38.9262 6.00388 38.5157 5.80807 38.2078 5.46541C35.9499 2.72407 32.563 1.20655 28.9196 1.20655Z" fill="black"/>
<path opacity="0.2" d="M38.9775 37.6761C39.7473 37.6761 40.4657 37.4803 41.1328 37.0887C53.4999 29.9417 60.3249 22.8435 62.0696 15.6965C62.4801 14.179 62.6341 12.5635 62.3775 10.8992C61.5564 5.31858 56.6301 0.96181 50.7288 0.57019C55.7578 12.2209 52.4222 24.5079 38.9775 37.6761Z" fill="black"/>
</svg>
