<svg width="70" height="70" viewBox="0 0 70 70" fill="none" xmlns="http://www.w3.org/2000/svg">
<path fill-rule="evenodd" clip-rule="evenodd" d="M25.6307 1.22922C15.0393 4.56008 7.31505 11.1974 2.75684 20.8838C0.410197 25.8684 -0.00391619 28.0022 2.77483e-05 35.0639C0.00397169 42.111 0.427945 44.2859 2.78445 49.3516C15.6141 76.9334 54.2292 76.8679 67.2373 49.2441C69.5829 44.2624 70 42.1217 70 35.0639C70 28.0062 69.5829 25.8655 67.2373 20.8838C64.2517 14.5429 59.2695 8.80433 53.6356 5.2153C45.9232 0.302134 33.982 -1.39752 25.6307 1.22922ZM40.1562 24.0436C45.4529 29.2775 49.7873 34.2366 49.7873 35.0639C49.7873 37.5274 30.6306 55.852 28.4841 55.4413C24.3893 54.6589 25.8466 51.5178 34.1397 43.2493L42.3491 35.0639L34.2364 26.9754C26.738 19.4991 25.0766 16.8704 26.7813 15.1795C28.5275 13.4476 31.2755 15.2685 40.1562 24.0436Z" fill="#37B449"/>
</svg>
