<svg width="71" height="70" viewBox="0 0 71 70" fill="none" xmlns="http://www.w3.org/2000/svg">
<path fill-rule="evenodd" clip-rule="evenodd" d="M44.5004 1.22922C55.0919 4.56008 62.8161 11.1974 67.3743 20.8838C69.7209 25.8684 70.135 28.0022 70.1311 35.0639C70.1271 42.111 69.7032 44.2859 67.3467 49.3516C54.517 76.9334 15.9019 76.8679 2.89383 49.2441C0.548178 44.2624 0.131104 42.1217 0.131104 35.0639C0.131104 28.0062 0.548178 25.8655 2.89383 20.8838C5.8794 14.5429 10.8616 8.80433 16.4955 5.2153C24.2079 0.302134 36.1491 -1.39752 44.5004 1.22922ZM29.9749 24.0436C24.6782 29.2775 20.3438 34.2366 20.3438 35.0639C20.3438 37.5274 39.5005 55.852 41.647 55.4413C45.7418 54.6589 44.2845 51.5178 35.9914 43.2493L27.7821 35.0639L35.8947 26.9754C43.3931 19.4991 45.0545 16.8704 43.3498 15.1795C41.6036 13.4476 38.8556 15.2685 29.9749 24.0436Z" fill="#37B449"/>
</svg>
