<svg width="55" height="52" viewBox="0 0 55 52" fill="none" xmlns="http://www.w3.org/2000/svg">
<g clip-path="url(#clip0_1_173)">
<path d="M35.4206 1.50637C25.2953 -1.30813 13.9027 1.67374 6.88615 9.22512C-0.982077 17.6897 -1.98882 30.4541 4.50132 39.9327C10.4838 48.6687 21.6516 52.9522 32.3425 51.1209C45.241 48.9109 54.4583 38.3419 54.7445 25.922C54.4856 14.6542 46.8695 4.68812 35.4206 1.50637ZM26.4724 50.856C12.7494 50.2466 1.86438 38.8895 1.86438 25.9204C1.86438 12.3094 13.9384 0.503741 28.4416 1.14724C42.3639 1.76637 52.7515 13.1105 53.0479 26.0829C52.7379 39.6874 41.1919 51.5092 26.4724 50.856Z" fill="#010002"/>
<path d="M35.6284 32.6543C33.9863 31.0878 32.3442 29.5229 30.7021 27.9564C30.0667 27.3519 28.6392 26.4517 28.3002 25.6668C27.9953 24.9632 28.3036 23.5186 28.3036 22.7434C28.3036 20.5643 28.3036 18.3852 28.3036 16.2061C28.3036 13.0357 28.3036 9.86695 28.3036 6.69657C28.3036 6.27407 26.6104 6.38132 26.6104 6.87695C26.6104 10.0473 26.6104 13.2161 26.6104 16.3864C26.6104 18.5656 26.6104 20.7447 26.6104 22.9238C26.6104 23.7168 26.3055 25.1907 26.6308 25.9366C26.9187 26.5979 28.1384 27.3958 28.6477 27.8817C30.2404 29.4011 31.8331 30.9204 33.4259 32.4382C35.8805 34.7798 38.3352 37.1198 40.7899 39.4614C41.151 39.8059 42.7045 39.4046 42.403 39.1169C40.146 36.9622 37.8872 34.8091 35.6284 32.6543Z" fill="#010002"/>
</g>
<defs>
<clipPath id="clip0_1_173">
<rect width="54.5103" height="52" fill="white" transform="translate(0.234131)"/>
</clipPath>
</defs>
</svg>
