<svg width="39" height="39" viewBox="0 0 39 39" fill="none" xmlns="http://www.w3.org/2000/svg">
<path d="M39 17.8746C39 8.01872 30.8464 0 20.824 0C15.7412 0 10.9335 2.07575 7.4958 5.72305C6.89281 5.09754 5.4291 4.37182 3.81686 5.56848L1.7332 7.22248C0.773153 7.98505 0.205338 9.13555 0.0455159 10.6419C-0.411188 14.944 2.59925 21.7427 7.71429 27.963C13.1437 34.5646 19.7223 39 24.084 39H24.0844C25.269 39 26.2692 38.6831 27.0563 38.0578L29.14 36.4038C29.7112 36.0058 30.6358 34.7445 30.0204 33.2951C35.5812 30.0876 39 24.2559 39 17.8746ZM28.1294 35.1311L26.0459 36.7851C25.5531 37.1766 24.8929 37.375 24.084 37.375C20.2424 37.375 14.0272 33.0804 8.96962 26.9307C4.19175 21.121 1.25469 14.6441 1.66133 10.8132C1.77324 9.75629 2.13785 8.97637 2.74363 8.49515L4.82721 6.84124C5.5344 6.3297 6.14265 6.63382 6.37768 6.91382L10.3533 11.7479C10.8443 12.4183 10.3569 13.0139 10.1041 13.2142C8.96875 14.116 8.27685 15.4585 8.1031 17.0962C7.82611 19.7075 8.91439 22.7904 11.0139 25.343C13.3272 28.1562 16.5253 29.9038 19.3596 29.9034C20.7002 29.9034 21.9078 29.507 22.8513 28.7576C23.3289 28.3788 24.0609 28.416 24.4025 28.8306L28.3782 33.664C28.9082 34.4649 28.252 35.0085 28.1294 35.1311ZM29.081 31.9603L25.6578 27.7984C25.0585 27.1378 23.6348 26.2005 21.8408 27.4851C21.1526 27.9779 20.3431 28.2784 19.3593 28.2784C16.9986 28.2788 14.2818 26.7581 12.2688 24.3108C10.4403 22.0875 9.48737 19.4549 9.71939 17.2677C9.84594 16.0732 10.339 15.1242 11.1147 14.487C11.8241 13.9042 12.8686 12.3322 11.6086 10.7157L8.54086 6.98538C11.6806 3.572 16.1222 1.62503 20.824 1.62503C21.2335 1.62503 21.6394 1.64031 22.0416 1.66912V4.22521H23.6666V1.86563C30.8569 3.0927 36.4692 8.89057 37.2745 16.0885H34.7149V17.7136H37.3729C37.3734 17.7673 37.375 17.8208 37.375 17.8746C37.375 23.7193 34.2131 29.0587 29.081 31.9603Z" fill="black"/>
<path d="M17.2081 20.4152L18.0594 19.643C20.3016 17.5202 21.7258 15.9603 21.7258 14.0306C21.7258 12.5346 20.7597 10.9907 18.4687 10.9907C17.2414 10.9907 16.194 11.4414 15.4575 12.0523L15.9156 13.0492C16.4064 12.6473 17.2081 12.1646 18.1741 12.1646C19.7612 12.1646 20.2853 13.1459 20.2853 14.2072C20.269 15.7834 19.0416 17.1342 16.3242 19.6753L15.1953 20.7525V21.6211H21.987V20.4471H17.2081L17.2081 20.4152Z" fill="black"/>
<path d="M29.4016 11.168H27.8463L23.1006 17.8421V18.7746H28.0431V21.6212H29.4015V18.7746H30.8909V17.665H29.4015V11.168H29.4016ZM28.0432 14.1753V17.665H24.5567V17.6331L27.1593 14.0786C27.454 13.5964 27.7153 13.1461 28.0432 12.5348H28.0922C28.0595 13.0817 28.0432 13.6283 28.0432 14.1753Z" fill="black"/>
</svg>
